<svg xmlns="http://www.w3.org/2000/svg" viewBox="0 0 1960.63 1473.93"><defs><style>.cls-1{fill:#fffefb;}.cls-2{fill:#ed6671;}.cls-3{fill:#22303d;}</style></defs><title>light</title><g id="Layer_2" data-name="Layer 2"><g id="Layer_1-2" data-name="Layer 1"><rect class="cls-1" width="1960.63" height="1473.93"/><g id="Layer_2-2" data-name="Layer 2"><g id="Layer_1-2-2" data-name="Layer 1-2"><path class="cls-2" d="M1676.1,433.86l-567.77,567.77-220.44-221,567.77-567.77a42.58,42.58,0,0,1,60.22-.1l.1.1L1676.1,373.68A42.58,42.58,0,0,1,1676.1,433.86Z"/><path class="cls-3" d="M1108.32,1001.35,918.4,1192.13a42.58,42.58,0,0,1-46.27,9.51,47.55,47.55,0,0,1-14.19-9.51L368.51,702.42a42.58,42.58,0,0,1,0-60.18L529.19,481.56a42.58,42.58,0,0,1,60.18,0Z"/></g></g></g></g></svg>