<svg xmlns="http://www.w3.org/2000/svg" viewBox="0 0 379.42 379.42"><defs><style>.cls-1{fill:#ef3756;}.cls-2{opacity:0.13;}</style></defs><title>x-icon</title><g id="Layer_2" data-name="Layer 2"><g id="Layer_1-2" data-name="Layer 1"><polygon class="cls-1" points="268.53 189.73 268.58 189.68 379.42 78.9 353.32 52.8 300.52 0 189.73 110.83 189.7 110.86 78.9 0 52.8 26.1 0 78.9 110.86 189.72 0.05 300.57 52.8 353.32 78.82 379.34 189.69 268.53 189.74 268.58 300.57 379.37 353.32 326.62 379.34 300.6 268.56 189.76 268.53 189.73"/><g class="cls-2"><polygon points="189.69 268.53 163.64 242.48 52.8 353.32 78.82 379.34 78.9 379.42 189.74 268.58 189.69 268.53"/><polygon points="353.32 52.8 242.47 163.65 268.53 189.73 268.56 189.76 268.61 189.71 379.42 78.9 353.32 52.8"/></g><g class="cls-2"><rect x="271.2" y="308.48" width="111.45" height="36.91" transform="translate(-135.42 326.96) rotate(-45)"/></g></g></g></svg>