<?xml version="1.0" encoding="utf-8"?>
<!-- Generator: Adobe Illustrator 20.0.0, SVG Export Plug-In . SVG Version: 6.00 Build 0)  -->
<svg version="1.1" id="Layer_1" xmlns="http://www.w3.org/2000/svg" xmlns:xlink="http://www.w3.org/1999/xlink" x="0px" y="0px"
	 viewBox="0 0 512 512" style="enable-background:new 0 0 512 512;" xml:space="preserve">
<style type="text/css">
	.st0{fill:#22E98C;}
	.st1{opacity:0.13;}
</style>
<path class="st0" d="M433.1,67.1L201.3,299c-6.2,6.2-16.4,6.2-22.6,0l-99.8-99.8L0,278l150.5,150.5c10.5,10.5,24.6,16.3,39.4,16.3
	l0,0c14.8,0,29-5.9,39.4-16.3L512,146L433.1,67.1z"/>
<g class="st1">
	<path d="M485.9,119.9L187.6,418.2c-8.3,8.3-18.6,13.9-29.8,16.4c9.4,6.6,20.6,10.3,32.2,10.3l0,0c14.8,0,29-5.9,39.4-16.3L512,146
		L485.9,119.9z"/>
</g>
</svg>
