<?xml version="1.0" encoding="utf-8"?>
<!-- Generator: Adobe Illustrator 20.0.0, SVG Export Plug-In . SVG Version: 6.00 Build 0)  -->
<svg version="1.1" id="Capa_1" xmlns="http://www.w3.org/2000/svg" xmlns:xlink="http://www.w3.org/1999/xlink" x="0px" y="0px"
	 viewBox="0 0 512 512" style="enable-background:new 0 0 512 512;" xml:space="preserve">
<style type="text/css">
	.st0{fill:#22303D;}
	.st1{fill:url(#SVGID_1_);}
</style>
<g>
	<path class="st0" d="M235.5,43.2L3.2,445c-9.1,15.8,2.3,35.6,20.5,35.6h464.5c18.3,0,29.7-19.8,20.5-35.6L276.5,43.2
		C267.4,27.4,244.6,27.4,235.5,43.2L235.5,43.2z"/>
	<linearGradient id="SVGID_1_" gradientUnits="userSpaceOnUse" x1="73.435" y1="216.856" x2="444.435" y2="434.856">
		<stop  offset="0.5846" style="stop-color:#D41C44"/>
		<stop  offset="1" style="stop-color:#D41C44"/>
	</linearGradient>
	<path class="st1" d="M45,434.7L247.1,84.5c4-6.9,13.9-6.9,17.8,0L467,434.7c4,6.9-1,15.5-8.9,15.5H53.9C46,450.2,41,441.6,45,434.7
		L45,434.7z"/>
	<g>
		<path class="st0" d="M256.5,357.6c-12.8,0-23.2-10.4-23.2-23.2V173.6c0-12.8,10.4-23.2,23.2-23.2c12.8,0,23.2,10.4,23.2,23.2
			v160.9C279.7,347.2,269.3,357.6,256.5,357.6z"/>
	</g>
	<g>
		<path class="st0" d="M256.5,423.9c-15.1,0-27.3-12.2-27.3-27.3c0-15.1,12.2-27.3,27.3-27.3c15.1,0,27.3,12.2,27.3,27.3
			C283.8,411.7,271.6,423.9,256.5,423.9z"/>
	</g>
</g>
</svg>
