<svg version="1.1" id="Outline" xmlns="http://www.w3.org/2000/svg" xmlns:xlink="http://www.w3.org/1999/xlink" x="0px" y="0px"
	 viewBox="0 0 24 24" style="enable-background:new 0 0 24 24;" xml:space="preserve">
<style type="text/css">
	.st0{fill:#22303d;}
</style>
<title>29 pencil</title>
<path class="st0" d="M22.9,1.1c-1.4-1.4-3.7-1.4-5.1,0L1.5,17.4C0.5,18.3,0,19.6,0,20.9V23c0,0.6,0.4,1,1,1h2.1
	c1.3,0,2.6-0.5,3.5-1.5L22.9,6.3C24.3,4.9,24.3,2.6,22.9,1.1z M5.2,21.1C4.6,21.7,3.8,22,3.1,22H2v-1.1c0-0.8,0.3-1.6,0.9-2.1
	L15.2,6.5l2.3,2.3L5.2,21.1z M21.4,4.9l-2.5,2.5l-2.3-2.3l2.5-2.5c0.6-0.6,1.7-0.6,2.3,0C22.1,3.2,22.1,4.2,21.4,4.9L21.4,4.9
	L21.4,4.9z"/>
</svg>
