<?xml version="1.0" encoding="utf-8"?>
<!-- Generator: Adobe Illustrator 20.0.0, SVG Export Plug-In . SVG Version: 6.00 Build 0)  -->
<svg version="1.1" id="Layer_1" xmlns="http://www.w3.org/2000/svg" xmlns:xlink="http://www.w3.org/1999/xlink" x="0px" y="0px"
	 viewBox="0 0 60.4 12.9" style="enable-background:new 0 0 60.4 12.9;" xml:space="preserve">
<style type="text/css">
	.st0{fill:#FFFEFB;}
</style>
<title>full-logo</title>
<g id="Layer_2">
	<g id="Layer_1-2">
		<path class="st0" d="M20.2,4.3h7v1.6h-2.5v6.8h-1.9V5.9h-2.6V4.3z"/>
		<path class="st0" d="M34.3,4.6c1.4,0.7,2.2,2.2,2.2,3.8c0,1.6-0.8,3-2.2,3.8c-1.4,0.8-3.1,0.8-4.6,0c-1.4-0.7-2.2-2.2-2.2-3.8
			c0-1.6,0.8-3,2.2-3.8C31.1,3.8,32.8,3.8,34.3,4.6z M30.7,6c-0.4,0.2-0.7,0.6-1,1c-0.5,0.8-0.5,1.9,0,2.7c0.2,0.4,0.6,0.8,1,1
			c0.4,0.2,0.8,0.3,1.3,0.3c0.5,0,0.9-0.1,1.3-0.4c0.4-0.2,0.7-0.6,0.9-1c0.2-0.4,0.3-0.9,0.3-1.4c0-0.5-0.1-0.9-0.3-1.3
			c-0.2-0.4-0.5-0.8-0.9-1c-0.4-0.2-0.8-0.3-1.3-0.3C31.5,5.7,31.1,5.8,30.7,6z"/>
		<path class="st0" d="M38,8h3.1v1.5H38V8z"/>
		<path class="st0" d="M48.5,4.8c0.7,0.3,1.2,0.9,1.6,1.5c0.4,0.7,0.6,1.4,0.6,2.2c0,0.8-0.2,1.5-0.6,2.2c-0.4,0.6-0.9,1.2-1.6,1.5
			c-0.7,0.4-1.5,0.5-2.3,0.5h-3.5V4.3h3.6C47,4.3,47.8,4.5,48.5,4.8z M47.5,10.8c0.4-0.2,0.7-0.5,0.9-0.9c0.2-0.4,0.3-0.9,0.3-1.3
			c0-0.5-0.1-0.9-0.3-1.4c-0.2-0.4-0.5-0.7-0.9-0.9c-0.4-0.2-0.8-0.3-1.3-0.3h-1.6v5.2h1.7C46.7,11.1,47.2,11,47.5,10.8L47.5,10.8z"
			/>
		<path class="st0" d="M58.1,4.6c1.4,0.7,2.2,2.2,2.2,3.8c0,1.6-0.8,3-2.2,3.8c-1.4,0.8-3.1,0.8-4.6,0c-1.4-0.7-2.2-2.2-2.2-3.8
			c0-1.6,0.8-3,2.2-3.8C55,3.8,56.7,3.8,58.1,4.6z M54.6,6c-0.4,0.2-0.7,0.6-1,1c-0.7,1.3-0.3,2.9,1,3.7c0.4,0.2,0.8,0.4,1.3,0.4
			c0.5,0,0.9-0.1,1.3-0.4c0.4-0.2,0.7-0.6,0.9-1c0.2-0.4,0.3-0.9,0.3-1.4c0-0.5-0.1-0.9-0.4-1.3c-0.2-0.4-0.5-0.8-0.9-1
			c-0.4-0.2-0.8-0.4-1.3-0.3C55.4,5.6,55,5.8,54.6,6z"/>
		<path class="st0" d="M16.9,2.2l-2-2.1c-0.2-0.2-0.6-0.2-0.8,0L6.8,7.4L3,3.6c-0.2-0.2-0.6-0.2-0.8,0L0.2,5.7C0,5.9,0,6.2,0.2,6.4
			l6.3,6.3c0.1,0.1,0.1,0.1,0.2,0.1c0.2,0.1,0.4,0,0.6-0.1l2.4-2.4l0,0L16.9,3c0,0,0,0,0,0C17.1,2.8,17.1,2.4,16.9,2.2z"/>
	</g>
</g>
</svg>
