<svg xmlns="http://www.w3.org/2000/svg" viewBox="0 0 60.36 12.88"><defs><style>.cls-1{fill:#d4d4d4;}.cls-2{fill:#ed6671;}</style></defs><title>full-logo-darkMode</title><g id="Layer_2" data-name="Layer 2"><g id="Layer_1-2" data-name="Layer 1"><g id="Layer_2-2" data-name="Layer 2"><g id="Layer_1-2-2" data-name="Layer 1-2"><path class="cls-1" d="M20.24,4.3h7V5.91H24.69V12.7H22.8V5.91H20.24Z"/><path class="cls-1" d="M34.27,4.6a4.21,4.21,0,0,1,2.22,3.76,4.25,4.25,0,0,1-2.22,3.77,4.89,4.89,0,0,1-4.58,0,4.23,4.23,0,0,1-2.22-3.77A4.22,4.22,0,0,1,29.68,4.6,5,5,0,0,1,34.27,4.6ZM30.71,6a2.59,2.59,0,0,0-1,1,2.77,2.77,0,0,0,0,2.7,2.7,2.7,0,0,0,1,1A2.45,2.45,0,0,0,32,11a2.42,2.42,0,0,0,1.28-.35,2.57,2.57,0,0,0,.92-1,2.76,2.76,0,0,0,.34-1.36A2.71,2.71,0,0,0,34.21,7a2.59,2.59,0,0,0-.92-1A2.42,2.42,0,0,0,32,5.69,2.51,2.51,0,0,0,30.71,6Z"/><path class="cls-1" d="M38,8h3.1V9.46H38Z"/><path class="cls-1" d="M48.54,4.84a3.88,3.88,0,0,1,1.57,1.49,4.23,4.23,0,0,1,.56,2.18,4.17,4.17,0,0,1-.57,2.18,3.94,3.94,0,0,1-1.59,1.49,4.94,4.94,0,0,1-2.33.53h-3.5V4.3h3.56A4.83,4.83,0,0,1,48.54,4.84Zm-1,5.94a2.29,2.29,0,0,0,.87-.92,2.82,2.82,0,0,0,.31-1.34,2.76,2.76,0,0,0-.33-1.36,2.37,2.37,0,0,0-.9-.93A2.53,2.53,0,0,0,46.2,5.9H44.58v5.21H46.3a2.42,2.42,0,0,0,1.25-.33Z"/><path class="cls-1" d="M58.14,4.6a4.21,4.21,0,0,1,2.22,3.76,4.25,4.25,0,0,1-2.22,3.77,4.89,4.89,0,0,1-4.58,0,4.23,4.23,0,0,1-2.22-3.77A4.22,4.22,0,0,1,53.55,4.6,5,5,0,0,1,58.14,4.6ZM54.58,6a2.58,2.58,0,0,0-1,1,2.72,2.72,0,0,0,1,3.67,2.44,2.44,0,0,0,1.29.36,2.41,2.41,0,0,0,1.28-.35,2.56,2.56,0,0,0,.92-1,2.76,2.76,0,0,0,.34-1.36A2.71,2.71,0,0,0,58.07,7a2.58,2.58,0,0,0-.92-1,2.41,2.41,0,0,0-1.28-.35A2.5,2.5,0,0,0,54.58,6Z"/><g id="Layer_2-2-2" data-name="Layer 2-2"><g id="Layer_1-2-2-2" data-name="Layer 1-2-2"><path class="cls-2" d="M16.93,3,9.65,10.28,6.82,7.44,14.1.16a.55.55,0,0,1,.77,0h0l2,2.06a.55.55,0,0,1,0,.78Z"/><path class="cls-1" d="M9.65,10.27,7.21,12.72a.55.55,0,0,1-.59.12.61.61,0,0,1-.18-.12L.16,6.44a.55.55,0,0,1,0-.77L2.22,3.61a.55.55,0,0,1,.77,0Z"/></g></g></g></g></g></g></svg>