<?xml version="1.0" encoding="utf-8"?>
<!-- Generator: Adobe Illustrator 20.0.0, SVG Export Plug-In . SVG Version: 6.00 Build 0)  -->
<svg version="1.1" id="Layer_1" xmlns="http://www.w3.org/2000/svg" xmlns:xlink="http://www.w3.org/1999/xlink" x="0px" y="0px"
	 viewBox="0 0 17 12.9" style="enable-background:new 0 0 17 12.9;" xml:space="preserve">
<style type="text/css">
	.st0{fill:#ED6671;}
	.st1{fill:#D4D4D4;}
</style>
<title>full-logo-darkMode</title>
<g id="Layer_2">
	<g id="Layer_1-2">
		<g id="Layer_2-2">
			<g id="Layer_1-2-2">
				<g id="Layer_2-2-2">
					<g id="Layer_1-2-2-2">
						<path class="st0" d="M16.9,3.1l-7.3,7.3L6.8,7.5l7.3-7.3c0.2-0.2,0.6-0.2,0.8,0l0,0l2,2.1C17.1,2.5,17.1,2.9,16.9,3.1
							L16.9,3.1L16.9,3.1z"/>
						<path class="st1" d="M9.6,10.4l-2.4,2.4C7,13,6.8,13,6.6,12.9c-0.1,0-0.1-0.1-0.2-0.1L0.2,6.5c-0.2-0.2-0.2-0.5,0-0.7l2.1-2.1
							c0.2-0.2,0.6-0.2,0.8,0L9.6,10.4z"/>
					</g>
				</g>
			</g>
		</g>
	</g>
</g>
</svg>
