<svg version="1.1" id="Outline" xmlns="http://www.w3.org/2000/svg" xmlns:xlink="http://www.w3.org/1999/xlink" x="0px" y="0px"
	 viewBox="0 0 20 20" style="enable-background:new 0 0 20 20;" xml:space="preserve">
<style type="text/css">
	.st0{fill:#22303d;}
</style>
<path class="st0" d="M10,6.7c-1.8,0-3.3,1.5-3.3,3.3s1.5,3.3,3.3,3.3s3.3-1.5,3.3-3.3S11.8,6.7,10,6.7z M10,11.7
	c-0.9,0-1.7-0.7-1.7-1.7c0-0.9,0.7-1.7,1.7-1.7c0.9,0,1.7,0.7,1.7,1.7C11.7,10.9,10.9,11.7,10,11.7z"/>
<path class="st0" d="M17.7,11.6l-0.4-0.2c0.2-0.9,0.2-1.8,0-2.7l0.4-0.2c1.2-0.7,1.6-2.2,0.9-3.4c-0.7-1.2-2.2-1.6-3.4-0.9l-0.4,0.2
	c-0.7-0.6-1.5-1.1-2.4-1.4V2.5C12.5,1.1,11.4,0,10,0S7.5,1.1,7.5,2.5v0.4C6.6,3.2,5.8,3.7,5.1,4.3L4.8,4.1C3.6,3.4,2,3.8,1.3,5
	S1.1,7.7,2.3,8.4l0,0l0.4,0.2c-0.2,0.9-0.2,1.8,0,2.7l-0.4,0.2c-1.2,0.7-1.6,2.2-0.9,3.4s2.2,1.6,3.4,0.9l0,0l0.4-0.2
	c0.7,0.6,1.5,1.1,2.4,1.4v0.4c0,1.4,1.1,2.5,2.5,2.5s2.5-1.1,2.5-2.5v-0.4c0.9-0.3,1.7-0.8,2.4-1.4l0.4,0.2c1.2,0.7,2.7,0.3,3.4-0.9
	C19.4,13.8,18.9,12.3,17.7,11.6L17.7,11.6L17.7,11.6z M15.6,8.4c0.3,1,0.3,2.1,0,3.1c-0.1,0.4,0.1,0.8,0.4,0.9l0.9,0.5
	c0.4,0.2,0.5,0.7,0.3,1.1c-0.2,0.4-0.7,0.5-1.1,0.3l0,0l-0.9-0.5c-0.3-0.2-0.7-0.1-1,0.1c-0.7,0.8-1.7,1.3-2.7,1.6
	c-0.4,0.1-0.6,0.4-0.6,0.8v1c0,0.5-0.4,0.8-0.8,0.8c-0.5,0-0.8-0.4-0.8-0.8v-1c0-0.4-0.3-0.7-0.6-0.8c-1-0.3-2-0.8-2.7-1.6
	c-0.3-0.3-0.7-0.3-1-0.1l-0.9,0.5c-0.4,0.2-0.9,0.1-1.1-0.3c-0.2-0.4-0.1-0.9,0.3-1.1c0,0,0,0,0,0L4,12.5c0.3-0.2,0.5-0.6,0.4-0.9
	c-0.3-1-0.3-2.1,0-3.1C4.5,8.1,4.3,7.7,4,7.5L3.1,7C2.7,6.7,2.6,6.2,2.8,5.8s0.7-0.5,1.1-0.3l0.9,0.5c0.3,0.2,0.7,0.1,1-0.1
	c0.7-0.8,1.7-1.3,2.7-1.6c0.4-0.1,0.6-0.4,0.6-0.8v-1C9.2,2,9.5,1.7,10,1.7s0.8,0.4,0.8,0.8v1c0,0.4,0.3,0.7,0.6,0.8
	c1,0.3,2,0.8,2.7,1.6c0.3,0.3,0.7,0.3,1,0.1l0.9-0.5c0.4-0.2,0.9-0.1,1.1,0.3c0.2,0.4,0.1,0.9-0.3,1.1c0,0,0,0,0,0L16,7.5
	C15.7,7.7,15.5,8.1,15.6,8.4L15.6,8.4z"/>
</svg>
