<?xml version="1.0" encoding="utf-8"?>
<!-- Generator: Adobe Illustrator 20.0.0, SVG Export Plug-In . SVG Version: 6.00 Build 0)  -->
<svg version="1.1" id="Outline" xmlns="http://www.w3.org/2000/svg" xmlns:xlink="http://www.w3.org/1999/xlink" x="0px" y="0px"
	 viewBox="0 0 24 24" style="enable-background:new 0 0 24 24;" xml:space="preserve">
<style type="text/css">
	.st0{fill:#22303D;}
</style>
<title>125 world</title>
<path class="st0" d="M12,0C5.4,0,0,5.4,0,12s5.4,12,12,12s12-5.4,12-12C24,5.4,18.6,0,12,0z M20.6,7h-3.2c-0.7-1.7-1.7-3.2-2.8-4.6
	C17.2,3,19.3,4.7,20.6,7z M16.5,12c0,1-0.2,2-0.5,3H8c-0.3-1-0.5-2-0.5-3c0-1,0.2-2,0.5-3h8C16.3,10,16.5,11,16.5,12z M8.8,17h6.4
	c-0.8,1.7-1.9,3.2-3.2,4.6C10.7,20.2,9.6,18.7,8.8,17z M8.8,7c0.8-1.7,1.9-3.2,3.2-4.6c1.3,1.4,2.4,2.9,3.2,4.6H8.8z M9.4,2.4
	C8.2,3.8,7.3,5.3,6.6,7H3.4C4.7,4.7,6.9,3,9.4,2.4z M2.5,9h3.4c-0.3,1-0.4,2-0.4,3c0,1,0.1,2,0.4,3H2.5C1.8,13,1.8,11,2.5,9z
	 M3.4,17h3.2c0.7,1.7,1.7,3.2,2.8,4.6C6.9,21,4.7,19.3,3.4,17z M14.6,21.6c1.2-1.4,2.1-3,2.8-4.6h3.2C19.3,19.3,17.2,21,14.6,21.6z
	 M21.5,15h-3.4c0.3-1,0.4-2,0.4-3c0-1-0.1-2-0.4-3h3.4C22.2,11,22.2,13,21.5,15L21.5,15z"/>
</svg>
