<?xml version="1.0" encoding="utf-8"?>
<!-- Generator: Adobe Illustrator 20.0.0, SVG Export Plug-In . SVG Version: 6.00 Build 0)  -->
<svg version="1.1" id="Layer_1" xmlns="http://www.w3.org/2000/svg" xmlns:xlink="http://www.w3.org/1999/xlink" x="0px" y="0px"
	 viewBox="0 0 24 24" style="enable-background:new 0 0 24 24;" xml:space="preserve">
<style type="text/css">
	.st0{fill:#22303D;}
</style>
<path class="st0" d="M13,20c2.8,0,5-2.2,5-5V6.2c0-1.1-0.4-2.1-1.2-2.8l-2.2-2.2C13.8,0.4,12.8,0,11.8,0H7C4.2,0,2,2.2,2,5v10
	c0,2.8,2.2,5,5,5H13z M4,15V5c0-1.7,1.3-3,3-3c0,0,4.9,0,5,0v2c0,1.1,0.9,2,2,2h2c0,0.1,0,9,0,9c0,1.7-1.3,3-3,3H7
	C5.3,18,4,16.7,4,15z M22,8v11c0,2.8-2.2,5-5,5H8c-0.6,0-1-0.4-1-1s0.4-1,1-1h9c1.7,0,3-1.3,3-3V8c0-0.6,0.4-1,1-1S22,7.4,22,8z"/>
</svg>
